{"title":"Outrage (II) (2009) DvdRip [Xvid] {1337x}-X.avi","uid":6063888,"size":736155648,"categoryP":"video","categoryS":"movies","magnet":"?xt=urn:btih:83a0e2733ee94bcdd389bb5f1a2f833bbd7e607b&amp;dn=Outrage+%28II%29+%282009%29+DvdRip+%5BXvid%5D+%7B1337x%7D-X.avi&amp;tr=udp%3A%2F%2Ftracker.openbittorrent.com%3A80&amp;tr=udp%3A%2F%2Fopen.demonii.com%3A1337&amp;tr=udp%3A%2F%2Ftracker.coppersurfer.tk%3A6969&amp;tr=udp%3A%2F%2Fexodus.desync.com%3A6969","seeders":0,"leechers":1,"uploader":"hiest","files":-1,"time":1293250189,"description":"Christine takes her best friend with another couple for a final vacation when she goes to close up and sell her family's hunting lodge in the remote woods of Northern Georgia...but it's also the scene of her worst childhood trauma. Things get worse when it turns out the lodge is in use by an ex-military sniper, Farragut and his three accomplice, the Loomis brothers, as a hideout who just escaped from a military prison. A hostage situation turns to hunting human prey as Christine and her friends Molly and Jack escape into the woods - the sadistic killers picking them off one-by-one, with Christine confronting worse and worse fears at every turn, realizing, and finally learning after meeting a medicine healer, Obeah ...it's her own fears that have drawn this nightmare upon her. And only if she overcomes them can she save her life and sanity. The spiritual message of the movie is based on &quot;The Law of Attraction&quot;\n\n\n\n\n\n\nVideo\n\nCodec ID/Hint : XviD\nDuration : 1h 27mn\nBit rate : 1 009 Kbps\nWidth : 656 pixels\nHeight : 368 pixels\nDisplay aspect ratio : 16:9\nFrame rate : 23.976 fps\nColor space : YUV\nChroma subsampling : 4:2:0\nBit depth : 8 bits\nScan type : Progressive\nBits/(Pixel*Frame) : 0.174\nStream size : 629 MiB (90%)\nWriting library : XviD 57\n\n\nAudio\nID : 1\nFormat : MPEG Audio\nFormat version : Version 1\nFormat profile : Layer 3\nMode : Joint stereo\nMode extension : MS Stereo\nCodec ID : 55\nCodec ID/Hint : MP3\nDuration : 1h 27mn\nBit rate mode : Variable\nBit rate : 105 Kbps\nNominal bit rate : 112 Kbps\nChannel(s) : 2 channels\nSampling rate : 48.0 KHz\nStream size : 65.2 MiB (9%)\nAlignment : Aligned on interleaves\nInterleave, duration : 24 ms (0.58 video frame)\nInterleave, preload duration : 176 ms\nWriting library : LAME3.97\n\n\n\nIMDB &lt;a href=&quot;\nhttp://www.imdb.com/title/tt1023344/&quot; rel=&quot;nofollow&quot; target=&quot;_NEW&quot;&gt;\nhttp://www.imdb.com/title/tt1023344/&lt;/a&gt;\n\n\n\n\n\n\n\n================================== &lt;a href=&quot;\nhttp://thepiratebay.se/user/hiest&quot; rel=&quot;nofollow&quot; target=&quot;_NEW&quot;&gt;\nhttp://thepiratebay.se/user/hiest&lt;/a&gt;\n==================================\n\n\n\n\n\n\nScreens:\n &lt;a href=&quot;\nhttp://leetleech.org/images/43723924958360234567.png&quot; rel=&quot;nofollow&quot; target=&quot;_NEW&quot;&gt;\nhttp://leetleech.org/images/43723924958360234567.png&lt;/a&gt;\n &lt;a href=&quot;\nhttp://leetleech.org/images/48243527585779326453.png&quot; rel=&quot;nofollow&quot; target=&quot;_NEW&quot;&gt;\nhttp://leetleech.org/images/48243527585779326453.png&lt;/a&gt;\n &lt;a href=&quot;\nhttp://leetleech.org/images/46430444563982468564.png&quot; rel=&quot;nofollow&quot; target=&quot;_NEW&quot;&gt;\nhttp://leetleech.org/images/46430444563982468564.png&lt;/a&gt;","torrent":{"xt":"urn:btih:83a0e2733ee94bcdd389bb5f1a2f833bbd7e607b","amp;dn":"Outrage+%28II%29+%282009%29+DvdRip+%5BXvid%5D+%7B1337x%7D-X.avi","amp;tr":["udp%3A%2F%2Ftracker.openbittorrent.com%3A80","udp%3A%2F%2Fopen.demonii.com%3A1337","udp%3A%2F%2Ftracker.coppersurfer.tk%3A6969","udp%3A%2F%2Fexodus.desync.com%3A6969"],"infoHash":"83a0e2733ee94bcdd389bb5f1a2f833bbd7e607b","infoHashBuffer":{"type":"Buffer","data":[131,160,226,115,62,233,75,205,211,137,187,95,26,47,131,59,189,126,96,123]},"announce":[],"urlList":[]}}